<?xml version="1.0" encoding="utf-8"?>
<!-- Generator: Adobe Illustrator 16.0.0, SVG Export Plug-In . SVG Version: 6.00 Build 0)  -->
<!DOCTYPE svg PUBLIC "-//W3C//DTD SVG 1.1//EN" "http://www.w3.org/Graphics/SVG/1.1/DTD/svg11.dtd">
<svg version="1.1" id="Layer_1" xmlns="http://www.w3.org/2000/svg" xmlns:xlink="http://www.w3.org/1999/xlink" x="0px" y="0px"
	 width="220px" height="65px" viewBox="0 0 220 65" enable-background="new 0 0 220 65" xml:space="preserve">
<linearGradient id="SVGID_1_" gradientUnits="userSpaceOnUse" x1="34.0596" y1="64.167" x2="34.0596" y2="64.167">
	<stop  offset="0" style="stop-color:#FFFFFF"/>
	<stop  offset="1" style="stop-color:#000000"/>
</linearGradient>
<line display="none" fill="url(#SVGID_1_)" stroke="#FFFFFF" stroke-width="4" stroke-miterlimit="10" x1="34.06" y1="6" x2="34.06" y2="122.334"/>
<linearGradient id="SVGID_2_" gradientUnits="userSpaceOnUse" x1="53.0596" y1="64.167" x2="53.0596" y2="64.167">
	<stop  offset="0" style="stop-color:#FFFFFF"/>
	<stop  offset="1" style="stop-color:#000000"/>
</linearGradient>
<line display="none" fill="url(#SVGID_2_)" stroke="#FFFFFF" stroke-width="4" stroke-miterlimit="10" x1="53.06" y1="6" x2="53.06" y2="122.334"/>
<linearGradient id="SVGID_3_" gradientUnits="userSpaceOnUse" x1="72.0596" y1="64.167" x2="72.0596" y2="64.167">
	<stop  offset="0" style="stop-color:#FFFFFF"/>
	<stop  offset="1" style="stop-color:#000000"/>
</linearGradient>
<line display="none" fill="url(#SVGID_3_)" stroke="#FFFFFF" stroke-width="4" stroke-miterlimit="10" x1="72.06" y1="6" x2="72.06" y2="122.334"/>
<linearGradient id="SVGID_4_" gradientUnits="userSpaceOnUse" x1="91.0596" y1="64.167" x2="91.0596" y2="64.167">
	<stop  offset="0" style="stop-color:#FFFFFF"/>
	<stop  offset="1" style="stop-color:#000000"/>
</linearGradient>
<line display="none" fill="url(#SVGID_4_)" stroke="#FFFFFF" stroke-width="4" stroke-miterlimit="10" x1="91.06" y1="6" x2="91.06" y2="122.334"/>
<linearGradient id="SVGID_5_" gradientUnits="userSpaceOnUse" x1="110.0596" y1="64.167" x2="110.0596" y2="64.167">
	<stop  offset="0" style="stop-color:#FFFFFF"/>
	<stop  offset="1" style="stop-color:#000000"/>
</linearGradient>
<line display="none" fill="url(#SVGID_5_)" stroke="#FFFFFF" stroke-width="4" stroke-miterlimit="10" x1="110.06" y1="6" x2="110.06" y2="122.334"/>
<linearGradient id="SVGID_6_" gradientUnits="userSpaceOnUse" x1="129.0596" y1="64.167" x2="129.0596" y2="64.167">
	<stop  offset="0" style="stop-color:#FFFFFF"/>
	<stop  offset="1" style="stop-color:#000000"/>
</linearGradient>
<line display="none" fill="url(#SVGID_6_)" stroke="#FFFFFF" stroke-width="4" stroke-miterlimit="10" x1="129.06" y1="6" x2="129.06" y2="122.334"/>
<linearGradient id="SVGID_7_" gradientUnits="userSpaceOnUse" x1="148.0596" y1="64.167" x2="148.0596" y2="64.167">
	<stop  offset="0" style="stop-color:#FFFFFF"/>
	<stop  offset="1" style="stop-color:#000000"/>
</linearGradient>
<line display="none" fill="url(#SVGID_7_)" stroke="#FFFFFF" stroke-width="4" stroke-miterlimit="10" x1="148.06" y1="6" x2="148.06" y2="122.334"/>
<linearGradient id="SVGID_8_" gradientUnits="userSpaceOnUse" x1="167.0596" y1="64.167" x2="167.0596" y2="64.167">
	<stop  offset="0" style="stop-color:#FFFFFF"/>
	<stop  offset="1" style="stop-color:#000000"/>
</linearGradient>
<line display="none" fill="url(#SVGID_8_)" stroke="#FFFFFF" stroke-width="4" stroke-miterlimit="10" x1="167.06" y1="6" x2="167.06" y2="122.334"/>
<linearGradient id="SVGID_9_" gradientUnits="userSpaceOnUse" x1="186.0596" y1="64.167" x2="186.0596" y2="64.167">
	<stop  offset="0" style="stop-color:#FFFFFF"/>
	<stop  offset="1" style="stop-color:#000000"/>
</linearGradient>
<line display="none" fill="url(#SVGID_9_)" stroke="#FFFFFF" stroke-width="4" stroke-miterlimit="10" x1="186.06" y1="6" x2="186.06" y2="122.334"/>
<g>
	<g>
		<path fill="#D65656" d="M33.723,41.414h4.729v3.331h-4.729v9.625H30.06V31.057h9.692v3.331h-6.028V41.414z"/>
		<path fill="#D65656" d="M45.007,31.057v17.985c0,1.665,0.733,2.265,1.898,2.265c1.166,0,1.898-0.6,1.898-2.265V31.057h3.464v17.75
			c0,3.731-1.865,5.863-5.462,5.863c-3.597,0-5.462-2.132-5.462-5.863v-17.75H45.007z"/>
		<path fill="#D65656" d="M58.049,40.882h5.029v3.33h-5.029v6.829h6.328v3.329h-9.992V31.057h9.992v3.331h-6.328V40.882z"/>
		<path fill="#D65656" d="M66.288,31.057h3.664v19.984h6.028v3.329h-9.692V31.057z"/>
		<path fill="#D65656" d="M87.669,30.791c3.564,0,5.396,2.131,5.396,5.862v0.731h-3.464v-0.965c0-1.665-0.666-2.298-1.832-2.298
			c-1.166,0-1.832,0.633-1.832,2.298c0,4.796,7.161,5.694,7.161,12.356c0,3.73-1.865,5.862-5.462,5.862
			c-3.597,0-5.462-2.132-5.462-5.862v-1.434h3.464v1.667c0,1.665,0.733,2.265,1.898,2.265s1.898-0.6,1.898-2.265
			c0-4.797-7.16-5.695-7.16-12.356C82.275,32.922,84.106,30.791,87.669,30.791z"/>
		<path fill="#D65656" d="M94.317,31.057h11.324v3.331h-3.831V54.37h-3.664V34.388h-3.83V31.057z"/>
		<path fill="#D65656" d="M117.957,54.37h-3.698l-0.632-4.229h-4.496l-0.632,4.229h-3.365l3.73-23.313h5.362L117.957,54.37z
			 M109.597,46.977h3.53l-1.765-11.79L109.597,46.977z"/>
		<path fill="#D65656" d="M117.451,31.057h11.324v3.331h-3.831V54.37h-3.663V34.388h-3.83V31.057z"/>
		<path fill="#D65656" d="M130.365,31.057h3.664V54.37h-3.664V31.057z"/>
		<path fill="#D65656" d="M141.339,30.791c3.564,0,5.396,2.131,5.396,5.862v0.731h-3.464v-0.965c0-1.665-0.667-2.298-1.832-2.298
			c-1.166,0-1.831,0.633-1.831,2.298c0,4.796,7.16,5.694,7.16,12.356c0,3.73-1.865,5.862-5.462,5.862
			c-3.598,0-5.463-2.132-5.463-5.862v-1.434h3.464v1.667c0,1.665,0.732,2.265,1.898,2.265s1.898-0.6,1.898-2.265
			c0-4.797-7.16-5.695-7.16-12.356C135.944,32.922,137.775,30.791,141.339,30.791z"/>
		<path fill="#D65656" d="M147.986,31.057h11.324v3.331h-3.83V54.37h-3.663V34.388h-3.831V31.057z"/>
		<path fill="#D65656" d="M160.901,31.057h3.664V54.37h-3.664V31.057z"/>
		<path fill="#D65656" d="M177.511,45.678v3.098c0,3.73-1.865,5.862-5.463,5.862c-3.597,0-5.462-2.132-5.462-5.862V36.652
			c0-3.73,1.865-5.862,5.462-5.862c3.598,0,5.463,2.131,5.463,5.862v2.265h-3.464v-2.498c0-1.665-0.732-2.298-1.898-2.298
			s-1.899,0.633-1.899,2.298v12.59c0,1.665,0.733,2.265,1.899,2.265s1.898-0.6,1.898-2.265v-3.331H177.511z"/>
		<path fill="#D65656" d="M184.63,30.791c3.564,0,5.396,2.131,5.396,5.862v0.731h-3.464v-0.965c0-1.665-0.666-2.298-1.831-2.298
			c-1.166,0-1.832,0.633-1.832,2.298c0,4.796,7.16,5.694,7.16,12.356c0,3.73-1.865,5.862-5.462,5.862
			c-3.598,0-5.462-2.132-5.462-5.862v-1.434h3.464v1.667c0,1.665,0.732,2.265,1.897,2.265c1.167,0,1.899-0.6,1.899-2.265
			c0-4.797-7.161-5.695-7.161-12.356C179.235,32.922,181.066,30.791,184.63,30.791z"/>
	</g>
	<g>
		<rect x="30.06" y="18.195" fill="#D65656" width="12.903" height="9.462"/>
		<polygon fill="#D65656" points="59.307,15.614 59.307,11.313 46.404,11.313 46.404,14.754 46.404,27.657 59.307,27.657 		"/>
		<polygon fill="#D65656" points="108.339,14.754 95.436,14.754 95.436,27.657 108.339,27.657 108.339,15.614 		"/>
		<rect x="62.748" y="19.055" fill="#D65656" width="12.903" height="8.602"/>
		<rect x="111.78" y="19.055" fill="#D65656" width="12.903" height="8.602"/>
		<polygon fill="#D65656" points="160.812,13.034 160.812,13.894 160.812,27.657 173.716,27.657 173.716,13.034 		"/>
		<polygon fill="#D65656" points="144.468,17.334 144.468,19.055 144.468,27.657 157.371,27.657 157.371,17.334 		"/>
		<rect x="177.156" y="9.593" fill="#D65656" width="12.903" height="18.064"/>
		<rect x="128.124" y="22.496" fill="#D65656" width="12.903" height="5.161"/>
		<polygon fill="#D65656" points="91.995,11.313 91.995,8.732 79.092,8.732 79.092,15.614 79.092,27.657 91.995,27.657 		"/>
	</g>
</g>
</svg>
